<svg width="100" height="37" viewBox="0 0 100 37" fill="none" xmlns="http://www.w3.org/2000/svg">
<path d="M17.4779 1.344C19.5899 1.344 21.3179 1.664 22.6619 2.304C24.0379 2.912 25.2539 3.632 26.3099 4.464C26.9499 4.944 27.4299 5.008 27.7499 4.656C28.1019 4.272 28.3419 3.392 28.4699 2.016H29.5739C29.5099 3.264 29.4619 4.784 29.4299 6.576C29.3979 8.336 29.3819 10.688 29.3819 13.632H28.2779C28.1179 12.16 27.9099 10.912 27.6539 9.888C27.3979 8.832 27.0459 7.904 26.5979 7.104C26.1499 6.304 25.5099 5.584 24.6779 4.944C23.8779 4.144 22.9499 3.552 21.8939 3.168C20.8379 2.784 19.7339 2.592 18.5819 2.592C16.8539 2.592 15.3819 3.056 14.1659 3.984C12.9499 4.88 11.9579 6.112 11.1899 7.68C10.4539 9.248 9.90988 11.024 9.55788 13.008C9.20588 14.96 9.02988 16.992 9.02988 19.104C9.02988 21.248 9.20588 23.312 9.55788 25.296C9.94188 27.248 10.5179 28.992 11.2859 30.528C12.0859 32.064 13.1099 33.28 14.3579 34.176C15.6059 35.072 17.0779 35.52 18.7739 35.52C19.8299 35.52 20.8859 35.328 21.9419 34.944C23.0299 34.528 23.9579 33.936 24.7259 33.168C25.9739 32.208 26.8219 31.024 27.2699 29.616C27.7179 28.176 28.0539 26.272 28.2779 23.904H29.3819C29.3819 26.944 29.3979 29.408 29.4299 31.296C29.4619 33.152 29.5099 34.72 29.5739 36H28.4699C28.3419 34.624 28.1179 33.76 27.7979 33.408C27.5099 33.056 27.0139 33.104 26.3099 33.552C25.1259 34.384 23.8619 35.12 22.5179 35.76C21.2059 36.368 19.5099 36.672 17.4299 36.672C14.0379 36.672 11.0619 35.984 8.50188 34.608C5.97388 33.232 4.00588 31.248 2.59788 28.656C1.18988 26.064 0.485875 22.944 0.485875 19.296C0.485875 15.712 1.20588 12.576 2.64588 9.888C4.11788 7.2 6.11788 5.104 8.64588 3.6C11.2059 2.096 14.1499 1.344 17.4779 1.344ZM58.4896 22.176C58.4896 22.944 58.4416 23.744 58.3456 24.576H39.7696C39.8976 26.24 40.4256 27.52 41.3536 28.416C42.3136 29.28 43.4816 29.712 44.8576 29.712C46.9056 29.712 48.3296 28.848 49.1296 27.12H57.8656C57.4176 28.88 56.6016 30.464 55.4176 31.872C54.2656 33.28 52.8096 34.384 51.0496 35.184C49.2896 35.984 47.3216 36.384 45.1456 36.384C42.5216 36.384 40.1856 35.824 38.1376 34.704C36.0896 33.584 34.4896 31.984 33.3376 29.904C32.1856 27.824 31.6096 25.392 31.6096 22.608C31.6096 19.824 32.1696 17.392 33.2896 15.312C34.4416 13.232 36.0416 11.632 38.0896 10.512C40.1376 9.392 42.4896 8.832 45.1456 8.832C47.7376 8.832 50.0416 9.376 52.0576 10.464C54.0736 11.552 55.6416 13.104 56.7616 15.12C57.9136 17.136 58.4896 19.488 58.4896 22.176ZM50.0896 20.016C50.0896 18.608 49.6096 17.488 48.6496 16.656C47.6896 15.824 46.4896 15.408 45.0496 15.408C43.6736 15.408 42.5056 15.808 41.5456 16.608C40.6176 17.408 40.0416 18.544 39.8176 20.016H50.0896ZM69.0278 0.48V36H60.8198V0.48H69.0278ZM71.344 22.56C71.344 19.808 71.856 17.392 72.88 15.312C73.936 13.232 75.36 11.632 77.152 10.512C78.944 9.392 80.944 8.832 83.152 8.832C85.04 8.832 86.688 9.216 88.096 9.984C89.536 10.752 90.64 11.76 91.408 13.008V9.216H99.616V36H91.408V32.208C90.608 33.456 89.488 34.464 88.048 35.232C86.64 36 84.992 36.384 83.104 36.384C80.928 36.384 78.944 35.824 77.152 34.704C75.36 33.552 73.936 31.936 72.88 29.856C71.856 27.744 71.344 25.312 71.344 22.56ZM91.408 22.608C91.408 20.56 90.832 18.944 89.68 17.76C88.56 16.576 87.184 15.984 85.552 15.984C83.92 15.984 82.528 16.576 81.376 17.76C80.256 18.912 79.696 20.512 79.696 22.56C79.696 24.608 80.256 26.24 81.376 27.456C82.528 28.64 83.92 29.232 85.552 29.232C87.184 29.232 88.56 28.64 89.68 27.456C90.832 26.272 91.408 24.656 91.408 22.608Z" fill="#E23125"/>
</svg>
