<svg width="65" height="43" viewBox="0 0 65 43" fill="none" xmlns="http://www.w3.org/2000/svg">
<path d="M14.8371 43C10.0953 43 6.42431 41.4013 3.824 38.2038C1.27468 35.0064 0 30.3205 0 24.1461V0.992309H9.71293V23.1538C9.71293 26.682 10.3758 29.3833 11.7014 31.2577C13.0271 33.1321 15.1175 34.0692 17.9727 34.0692C18.411 34.0692 18.8366 34.0416 19.2494 33.9865C21.3817 33.7019 23.1741 32.682 24.6265 30.9269C25.577 29.8111 27.5451 26.7462 28.6421 24.4756C30.0764 21.507 26.0696 30.7688 26.0696 29.0168L37.0927 8.09546L34.9422 19.9343L27.8309 34.9045C26.6582 37.3302 24.8049 39.4167 22.5615 40.85C22.1517 41.1179 21.7286 41.3608 21.292 41.5786C19.3932 42.5262 17.2415 43 14.8371 43Z" fill="#E23125"/>
<path d="M27.8309 34.9045L26.0696 29.0168L37.0927 8.09546C37.8735 6.48041 38.9447 5.01571 40.2206 3.79406C40.861 3.18091 41.5529 2.62899 42.2855 2.15C44.5289 0.716668 47.1548 0 50.163 0C54.8537 0 58.4992 1.59872 61.0995 4.79616C63.6999 7.99359 65 12.6795 65 18.8538V42.0077H55.2106V19.8462C55.2106 16.3179 54.5478 13.6167 53.2221 11.7423C51.8965 9.86795 49.8315 8.93077 47.0273 8.93077C44.274 8.93077 42.0051 9.9782 40.2206 12.0731C38.4871 14.1679 37.0927 15.3808 34.9422 19.9343L27.8309 34.9045Z" fill="#E23125"/>
</svg>
